<?xml version="1.0" encoding="UTF-8" standalone="no"?><!-- Generator: Gravit.io --><svg xmlns="http://www.w3.org/2000/svg" xmlns:xlink="http://www.w3.org/1999/xlink" style="isolation:isolate" viewBox="0 0 512 512" width="512pt" height="512pt"><defs><clipPath id="_clipPath_M1tEzt6P5PHuwH5OHJ5zJNVFFPL0Sxjc"><rect width="512" height="512"/></clipPath></defs><g clip-path="url(#_clipPath_M1tEzt6P5PHuwH5OHJ5zJNVFFPL0Sxjc)"><g><g><path d=" M 448 224 L 448 160 L 416 160 L 416 224 L 352 224 L 352 256 L 416 256 L 416 320 L 448 320 L 448 256 L 512 256 L 512 224 L 448 224 Z " fill="rgb(23,48,71)"/></g></g><g><g><path d=" M 160 224 L 160 288 L 250.528 288 C 237.312 325.248 201.728 352 160 352 C 107.072 352 64 308.928 64 256 C 64 203.072 107.072 160 160 160 C 182.944 160 205.024 168.224 222.176 183.168 L 264.224 134.912 C 235.424 109.824 198.432 96 160 96 C 71.776 96 0 167.776 0 256 C 0 344.224 71.776 416 160 416 C 248.224 416 320 344.224 320 256 L 320 224 L 160 224 L 160 224 Z " fill="rgb(23,48,71)"/></g></g></g></svg>