<?xml version="1.0" encoding="UTF-8" standalone="no"?><!-- Generator: Gravit.io --><svg xmlns="http://www.w3.org/2000/svg" xmlns:xlink="http://www.w3.org/1999/xlink" style="isolation:isolate" viewBox="0 0 512 512" width="512pt" height="512pt"><defs><clipPath id="_clipPath_Z92sC6cP8TUHbhk1njnsAxrzDDaQQd9x"><rect width="512" height="512"/></clipPath></defs><g clip-path="url(#_clipPath_Z92sC6cP8TUHbhk1njnsAxrzDDaQQd9x)"><g><g><path d=" M 512 97.248 C 492.96 105.6 472.672 111.136 451.52 113.824 C 473.28 100.832 489.888 80.416 497.696 55.808 C 477.408 67.904 455.008 76.448 431.136 81.216 C 411.872 60.704 384.416 48 354.464 48 C 296.352 48 249.568 95.168 249.568 152.992 C 249.568 161.312 250.272 169.312 252 176.928 C 164.736 172.672 87.52 130.848 35.648 67.136 C 26.592 82.848 21.28 100.832 21.28 120.192 C 21.28 156.544 40 188.768 67.904 207.424 C 51.04 207.104 34.496 202.208 20.48 194.496 C 20.48 194.816 20.48 195.232 20.48 195.648 C 20.48 246.656 56.864 289.024 104.576 298.784 C 96.032 301.12 86.72 302.24 77.056 302.24 C 70.336 302.24 63.552 301.856 57.184 300.448 C 70.784 342.016 109.376 372.576 155.264 373.568 C 119.552 401.504 74.208 418.336 25.12 418.336 C 16.512 418.336 8.256 417.952 0 416.896 C 46.496 446.88 101.6 464 161.024 464 C 354.176 464 459.776 304 459.776 165.312 C 459.776 160.672 459.616 156.192 459.392 151.744 C 480.224 136.96 497.728 118.496 512 97.248 Z " fill="rgb(23,48,71)"/></g></g></g></svg>